<svg xmlns="http://www.w3.org/2000/svg" xmlns:xlink="http://www.w3.org/1999/xlink" width="500" zoomAndPan="magnify" viewBox="0 0 375 374.999991" height="500" preserveAspectRatio="xMidYMid meet" version="1.0"><defs><g/><clipPath id="39e600a0ea"><path d="M 1.207031 1.207031 L 373.792969 1.207031 L 373.792969 373.792969 L 1.207031 373.792969 Z M 1.207031 1.207031 " clip-rule="nonzero"/></clipPath><clipPath id="412d386e20"><path d="M 59.421875 1.207031 L 315.578125 1.207031 C 331.019531 1.207031 345.824219 7.339844 356.742188 18.257812 C 367.660156 29.175781 373.792969 43.980469 373.792969 59.421875 L 373.792969 315.578125 C 373.792969 347.730469 347.730469 373.792969 315.578125 373.792969 L 59.421875 373.792969 C 43.980469 373.792969 29.175781 367.660156 18.257812 356.742188 C 7.339844 345.824219 1.207031 331.019531 1.207031 315.578125 L 1.207031 59.421875 C 1.207031 27.269531 27.269531 1.207031 59.421875 1.207031 Z M 59.421875 1.207031 " clip-rule="nonzero"/></clipPath><clipPath id="496924cf7c"><path d="M 0.207031 0.207031 L 372.792969 0.207031 L 372.792969 372.792969 L 0.207031 372.792969 Z M 0.207031 0.207031 " clip-rule="nonzero"/></clipPath><clipPath id="867f88c298"><path d="M 58.421875 0.207031 L 314.578125 0.207031 C 330.019531 0.207031 344.824219 6.339844 355.742188 17.257812 C 366.660156 28.175781 372.792969 42.980469 372.792969 58.421875 L 372.792969 314.578125 C 372.792969 346.730469 346.730469 372.792969 314.578125 372.792969 L 58.421875 372.792969 C 42.980469 372.792969 28.175781 366.660156 17.257812 355.742188 C 6.339844 344.824219 0.207031 330.019531 0.207031 314.578125 L 0.207031 58.421875 C 0.207031 26.269531 26.269531 0.207031 58.421875 0.207031 Z M 58.421875 0.207031 " clip-rule="nonzero"/></clipPath><clipPath id="7defa56359"><rect x="0" width="373" y="0" height="373"/></clipPath></defs><g clip-path="url(#39e600a0ea)"><g clip-path="url(#412d386e20)"><g transform="matrix(1, 0, 0, 1, 1, 1)"><g clip-path="url(#7defa56359)"><g clip-path="url(#496924cf7c)"><g clip-path="url(#867f88c298)"><path fill="#282c34" d="M 0.207031 0.207031 L 372.792969 0.207031 L 372.792969 372.792969 L 0.207031 372.792969 Z M 0.207031 0.207031 " fill-opacity="1" fill-rule="nonzero"/></g></g></g></g></g></g><g fill="#ffd300" fill-opacity="1"><g transform="translate(70.554199, 289.124249)"><g><path d="M 224.921875 -116.5 L 224.921875 -98.578125 C 224.921875 -77.265625 220.390625 -58.941406 211.328125 -43.609375 C 202.265625 -28.273438 189.96875 -16.472656 174.4375 -8.203125 C 158.90625 0.0546875 141.382812 4.1875 121.875 4.1875 C 105.539062 4.1875 90.453125 1.398438 76.609375 -4.171875 C 62.773438 -9.753906 50.828125 -17.523438 40.765625 -27.484375 C 30.710938 -37.441406 22.898438 -48.988281 17.328125 -62.125 C 11.753906 -75.269531 8.96875 -89.3125 8.96875 -104.25 C 8.96875 -119.382812 11.753906 -133.570312 17.328125 -146.8125 C 22.898438 -160.050781 30.664062 -171.648438 40.625 -181.609375 C 50.582031 -191.566406 62.226562 -199.332031 75.5625 -204.90625 C 88.90625 -210.488281 103.242188 -213.28125 118.578125 -213.28125 C 138.691406 -213.28125 156.765625 -208.847656 172.796875 -199.984375 C 188.828125 -191.117188 201.222656 -179.617188 209.984375 -165.484375 L 169.359375 -142.1875 C 164.984375 -149.15625 158.3125 -154.976562 149.34375 -159.65625 C 140.382812 -164.332031 130.03125 -166.671875 118.28125 -166.671875 C 106.53125 -166.671875 96.023438 -163.984375 86.765625 -158.609375 C 77.515625 -153.234375 70.195312 -145.863281 64.8125 -136.5 C 59.4375 -127.144531 56.75 -116.296875 56.75 -103.953125 C 56.75 -92.203125 59.382812 -81.644531 64.65625 -72.28125 C 69.9375 -62.925781 77.503906 -55.609375 87.359375 -50.328125 C 97.222656 -45.054688 108.925781 -42.421875 122.46875 -42.421875 C 136.40625 -42.421875 147.851562 -45.304688 156.8125 -51.078125 C 165.78125 -56.847656 172.15625 -64.710938 175.9375 -74.671875 L 120.078125 -74.671875 L 120.078125 -116.5 Z M 224.921875 -116.5 "/></g></g></g></svg>